PathFileType	4	(X/Y/Z)	c:/Users/goper/Files/vsCode/490R/osim_files/A04/A04_SSWS_06.trc
DataRate	CameraRate	NumFrames	NumMarkers	Units                	OrigDataRate	OrigDataStartFrame	OrigNumFrames
120.00	120.00	10	36	mm	120.0	792	905
                Frame#	Time	LPSIS			LASIS			LTH1			LTH2			LTH3			LTH4			LLFE			LMFE			LSH1			LSH2			LSH3			LSH4			LLMAL			LMMAL			LCAL			LMTP5			LTOE			LMTP1			RPSIS			RASIS			RTH1			RTH2			RTH3			RTH4			RLFE			RMFE			RSH1			RSH2			RSH3			RSH4			RLMAL			RMMAL			RCAL			RMTP1			RTOE			RMTP5		
		X1	Y1	Z1	X2	Y2	Z2	X3	Y3	Z3	X4	Y4	Z4	X5	Y5	Z5	X6	Y6	Z6	X7	Y7	Z7	X8	Y8	Z8	X9	Y9	Z9	X10	Y10	Z10	X11	Y11	Z11	X12	Y12	Z12	X13	Y13	Z13	X14	Y14	Z14	X15	Y15	Z15	X16	Y16	Z16	X17	Y17	Z17	X18	Y18	Z18	X19	Y19	Z19	X20	Y20	Z20	X21	Y21	Z21	X22	Y22	Z22	X23	Y23	Z23	X24	Y24	Z24	X25	Y25	Z25	X26	Y26	Z26	X27	Y27	Z27	X28	Y28	Z28	X29	Y29	Z29	X30	Y30	Z30	X31	Y31	Z31	X32	Y32	Z32	X33	Y33	Z33	X34	Y34	Z34	X35	Y35	Z35	X36	Y36	Z36

792	6.59167	-2615.98950	1063.12976	396.80777	-2839.46729	1007.67560	472.34470	-2758.78125	660.50067	487.25729	-2752.42236	616.66504	484.10291	-2698.13818	663.95148	486.17090	-2698.71313	619.71808	482.73544	0.00000	0.00000	0.00000	-2739.33154	535.32550	329.52185	-2668.46753	430.51517	458.99814	-2670.35010	387.24551	453.97412	-2730.47852	425.00272	452.66995	-2722.30859	383.74994	446.35852	-2612.86621	112.32913	387.20569	-2642.35278	117.20538	305.92410	-2555.08594	73.02080	326.53940	-2751.08643	63.52630	432.38196	-2804.77563	78.54721	376.00082	-2789.82983	62.77123	330.30212	-2609.45972	1049.51221	291.01712	0.00000	0.00000	0.00000	-2857.22998	736.66260	143.95828	-2883.34058	702.66589	143.41940	-2911.54443	768.70972	133.06941	-2933.98779	726.49957	136.18999	-2999.70654	603.04285	158.02440	-3014.17944	602.05341	275.85040	-2963.04468	368.78726	170.88017	-2974.68262	321.11880	179.19618	-3025.63745	371.41275	162.51671	-3025.20190	323.78650	168.04016	-3009.88745	130.76268	174.13551	-3046.55835	144.66348	305.53528	-2958.22681	71.18082	257.46487	-3180.99561	106.04663	276.60394	-3197.54102	131.93796	229.50169	-3163.58325	97.04116	159.44362
793	6.60000	-2624.28931	1062.43250	396.62360	-2847.47339	1006.77325	471.87784	-2763.38574	660.00012	486.85806	-2756.56909	616.27081	483.77560	-2702.64453	663.96918	485.82376	-2703.01514	620.25244	482.69717	0.00000	0.00000	0.00000	-2742.54907	534.90765	329.10809	-2670.94092	430.71936	458.68054	-2672.59106	387.35068	453.73880	-2733.57642	425.05261	452.77588	-2724.70117	383.61871	446.12161	-2613.16602	112.56093	387.15686	-2642.66846	117.41899	305.86008	-2555.25024	73.48898	326.49469	-2751.23047	63.47486	432.36084	-2804.91260	78.38486	375.98618	-2789.99438	62.60030	330.28534	-2617.03174	1049.03918	290.57648	0.00000	0.00000	0.00000	-2865.00488	734.36255	145.40544	-2889.11743	700.44714	144.70837	-2917.94116	766.20709	133.22249	-2940.36890	724.06299	136.67784	-3004.94385	601.36334	158.93134	-3022.07373	601.19556	276.52246	-2980.30933	365.61905	172.10840	-2988.89868	320.95551	181.13242	-3041.21167	371.13876	163.31264	-3042.62793	323.48276	168.82690	-3035.66699	130.16451	174.81320	-3072.64722	145.57492	306.13904	-2983.01221	69.93433	257.80981	-3208.61523	112.84936	276.47836	-3223.68140	139.25270	229.31821	-3190.16113	102.75788	159.12820
794	6.60833	-2632.24878	1061.72302	396.29883	-2855.63965	1005.84967	471.43753	-2767.82349	659.35504	486.27600	-2760.67773	615.82642	483.27441	-2707.29614	663.96320	485.51077	-2707.25073	620.16663	482.31073	0.00000	0.00000	0.00000	-2745.86304	534.44629	328.74469	-2673.55444	430.83582	458.42209	-2674.80542	387.44907	453.44861	-2736.09692	424.86276	452.47925	-2727.00146	383.45395	445.89575	-2613.43042	112.85539	387.15582	-2642.77368	117.59679	305.78348	-2555.47705	73.98450	326.28693	-2751.23315	63.42013	432.27515	-2805.05737	78.15402	375.89960	-2790.11206	62.38787	330.25116	-2625.43262	1048.21765	290.29114	0.00000	0.00000	0.00000	-2871.48047	732.12500	146.50754	-2894.98877	698.16199	145.82024	-2924.13696	763.51373	133.28902	-2944.55127	720.27594	136.84737	-3012.44482	598.92255	160.44444	-3029.60913	599.92804	277.43286	-2995.59888	362.99597	173.44556	-3009.77124	317.09998	181.40402	-3056.18848	371.04788	164.15891	-3059.50098	323.39264	169.69865	-3060.40186	130.04829	175.55209	-3098.00244	146.97420	306.89474	-3015.52173	66.11411	260.00171	-3235.17310	119.98180	276.26837	-3248.74121	146.96220	228.91794	-3216.40234	109.45579	159.06636
795	6.61667	-2639.80200	1060.97839	395.73212	-2864.07568	1004.86523	471.00372	-2772.30737	658.64703	485.56168	-2764.99951	615.43719	482.92346	-2711.94678	664.05292	485.51831	-2711.44653	620.10101	482.01230	0.00000	0.00000	0.00000	-2750.63257	534.02899	328.57623	-2676.19336	430.91055	458.07809	-2677.08984	387.61859	453.07242	-2737.94849	424.40652	451.67148	-2729.03442	383.07175	445.49768	-2613.70850	113.20968	387.15530	-2643.12500	117.84324	305.68088	-2555.57324	74.35273	326.42197	-2751.39014	63.40531	432.26892	-2805.28101	78.03386	375.85458	-2790.27173	62.18613	330.25195	-2634.36060	1047.10132	289.98215	0.00000	0.00000	0.00000	-2877.67603	729.95300	147.22986	-2901.07178	695.71814	146.81168	-2930.56079	760.69757	133.36005	-2950.74170	717.39667	137.14822	-3018.66650	596.56531	161.92410	-3036.95679	598.37280	278.51450	-3010.49854	360.45505	175.14594	0.00000	0.00000	0.00000	-3070.35986	370.95148	165.20644	-3075.62500	323.42477	170.77377	-3086.21191	130.14215	176.55301	-3122.52271	148.74074	307.59967	-3042.85425	64.51744	261.58670	-3260.37109	127.36562	275.73718	-3272.45483	154.69391	228.25221	-3241.93140	115.35324	159.14639
796	6.62500	-2648.88965	1059.68530	395.43082	-2872.53345	1003.75073	470.60672	-2776.64062	657.73846	484.66135	-2769.23389	614.85974	482.56381	-2716.63794	663.78168	484.89343	-2715.59180	620.13788	481.73877	0.00000	0.00000	0.00000	-2752.63794	533.46710	327.97931	-2678.99951	431.07529	457.79749	-2679.45654	387.75589	452.78137	-2741.30835	424.46863	451.83600	-2731.56348	382.86255	445.30829	-2613.93188	113.50850	387.18243	-2643.44165	118.07318	305.57220	-2555.73193	74.89722	326.37039	-2751.00195	63.55146	432.36749	-2805.45996	77.86252	375.79977	-2790.39038	61.96875	330.26532	-2642.91309	1046.14709	289.54135	0.00000	0.00000	0.00000	-2884.17773	727.59631	147.84026	-2907.32861	693.21429	147.50587	-2937.33496	757.85321	133.45918	-2959.57764	715.76660	137.63266	-3024.76880	594.00940	163.57350	-3044.04346	596.45319	279.81213	-3024.51855	358.16080	176.86600	0.00000	0.00000	0.00000	-3083.97266	370.82388	166.37903	-3090.99121	323.58273	171.90298	-3108.28662	130.88763	177.40388	-3145.92456	150.89687	308.31174	-3066.48560	65.01017	262.73898	-3284.20020	134.69962	274.98663	-3294.28394	161.79996	226.85632	-3264.96875	121.83531	158.62259
797	6.63333	-2657.62256	1058.48962	394.92703	-2881.03540	1002.55725	470.17471	-2782.40649	658.20831	485.94662	-2773.67627	614.28131	482.17004	-2721.39722	663.75623	484.59167	-2720.05151	619.93481	481.32925	0.00000	0.00000	0.00000	-2756.21362	532.90668	327.53204	-2681.76025	431.19894	457.35828	-2681.92090	387.87601	452.44324	-2743.10840	423.93362	450.76392	-2733.90601	382.65942	444.84821	-2614.28149	113.98967	387.15167	-2643.85229	118.30573	305.44507	-2555.98413	75.42245	326.30820	-2751.08398	63.51245	432.30975	-2805.59790	77.70659	375.76309	-2790.53711	61.81925	330.27243	-2651.41260	1045.08618	289.05292	0.00000	0.00000	0.00000	-2890.96167	725.28156	148.35429	-2913.82251	690.57349	148.10474	-2944.44971	754.99316	133.47226	-2963.78491	711.35730	137.51479	-3030.85498	591.22205	165.24747	-3050.97290	594.22687	281.33615	-3037.08081	355.01041	178.11664	-3057.26172	312.26596	186.50998	-3096.21997	370.69681	166.88943	-3105.56592	323.73013	173.14816	-3125.72754	133.64442	177.71465	-3168.01099	153.21083	309.05582	-3091.03369	64.59504	264.63171	-3306.52808	141.82176	274.13608	-3314.82886	168.97664	225.86870	-3286.14917	128.03056	157.97063
798	6.64167	-2666.61719	1057.27502	394.30823	-2889.78101	1001.35040	469.80920	-2787.19800	657.46973	485.36649	-2778.38013	613.78571	481.66989	-2726.46509	663.48651	484.20804	-2724.83350	619.79199	481.01459	0.00000	0.00000	0.00000	-2760.86279	532.40143	327.35248	-2684.77271	431.42093	457.02045	-2684.63232	388.02448	452.13248	-2746.15796	423.77451	450.44193	-2736.50391	382.33459	444.50610	-2614.72192	114.43568	387.16858	-2644.30933	118.52406	305.35590	-2556.23853	75.90135	326.30679	-2751.24561	63.47638	432.32849	-2805.85986	77.52320	375.75525	-2790.68994	61.67517	330.25717	-2660.67285	1043.73657	288.41684	0.00000	0.00000	0.00000	-2898.16626	722.87927	148.74155	-2920.61011	688.01080	148.50421	-2951.69946	752.01355	133.40773	-2973.03442	709.44031	137.75185	-3037.40308	588.55121	167.15979	-3057.86279	591.78345	283.10117	-3050.05005	353.17270	180.14929	0.00000	0.00000	0.00000	-3109.14307	370.48981	168.97699	-3119.27051	323.68906	174.42712	0.00000	0.00000	0.00000	-3188.29443	155.70229	309.77463	-3114.17456	64.47018	266.53644	-3327.32788	148.52805	273.10580	-3334.07642	175.83771	224.68796	-3305.66602	133.78748	157.26566
799	6.65000	-2675.37427	1055.63000	393.59113	-2898.60400	1000.09229	469.36969	-2792.26611	656.74701	484.82819	-2783.16382	613.12238	480.90826	-2731.57617	663.28235	483.76178	-2729.66504	619.47400	480.63019	0.00000	0.00000	0.00000	-2764.01196	531.76251	326.61288	-2687.92676	431.52063	456.61563	-2687.53564	388.07663	451.83319	-2749.79688	423.77631	450.53323	-2739.26001	382.02106	444.23599	-2615.13062	114.92052	387.18036	-2644.65747	118.69926	305.27795	-2556.54907	76.38435	326.30646	-2751.37378	63.38895	432.33240	-2806.06592	77.27074	375.80643	-2790.86084	61.50777	330.23550	-2669.41455	1042.36951	287.72882	0.00000	0.00000	0.00000	-2905.83081	720.42297	149.18040	-2928.90503	685.10504	148.89108	-2959.41577	749.05750	133.22198	-2980.50220	706.40857	137.70935	-3044.16870	585.86536	169.08308	-3064.39868	589.16852	284.87482	-3062.48706	351.34302	182.33075	0.00000	0.00000	0.00000	-3120.00024	369.93591	169.62346	-3132.23584	323.59698	175.74863	0.00000	0.00000	0.00000	-3208.51221	157.73993	310.55701	-3135.79590	64.47098	268.41882	-3346.58252	154.61491	272.06235	-3350.72778	181.96141	223.03056	-3323.60278	138.85574	156.43140
800	6.65833	-2684.77759	1054.08386	392.78165	-2907.56177	998.74286	468.98746	-2797.64331	656.07446	484.28009	-2788.36450	612.31885	480.15067	-2736.92017	663.03717	483.25833	-2734.62939	619.36377	480.21707	0.00000	0.00000	0.00000	-2768.25098	531.09705	326.12439	-2691.25708	431.66928	456.22055	-2690.45947	388.14771	451.47272	-2752.97461	423.52979	450.03217	-2742.43408	381.73511	444.05170	-2615.59448	115.27908	387.00330	-2645.06445	118.93336	305.15619	-2556.63232	76.99490	326.31314	-2751.46411	63.35300	432.26230	-2806.29590	77.04222	375.82327	-2791.01123	61.32434	330.21313	-2679.28516	1040.69885	286.87158	0.00000	0.00000	0.00000	-2914.21338	717.58527	149.88080	-2936.77808	682.44574	149.45348	-2967.52368	746.15735	133.22543	-2985.95801	702.11151	137.55006	-3051.13867	583.26245	171.11131	-3070.88037	586.23413	287.20547	-3074.69824	350.43677	185.42661	0.00000	0.00000	0.00000	-3131.03906	369.29700	171.17914	-3145.67578	323.60849	178.23447	0.00000	0.00000	0.00000	-3226.61035	159.56047	311.21600	-3155.86230	64.45399	270.02496	-3362.38574	159.14606	270.26532	-3367.00513	187.31766	221.87810	-3340.16309	143.46312	155.69470
801	6.66667	-2692.96655	1052.63708	391.65616	-2916.46631	997.19482	468.60529	-2803.36572	655.33466	483.70566	-2793.83545	611.60681	478.91940	-2742.77930	662.85596	482.82809	-2740.05371	619.11774	479.75687	0.00000	0.00000	0.00000	-2772.66992	530.41510	325.68109	-2694.91162	431.86411	455.84113	-2693.78467	388.39285	451.20645	-2755.92383	422.88235	449.30936	-2745.35156	381.34940	443.58279	-2616.06567	115.86450	386.93692	-2645.60449	119.18842	305.04584	-2556.97485	77.49230	326.27612	-2751.76880	63.29476	432.33371	-2806.75488	76.97958	375.86853	-2791.16650	61.11745	330.18661	-2688.09497	1039.27893	285.79770	0.00000	0.00000	0.00000	-2919.88672	715.91272	149.85783	-2944.53198	680.07330	150.20721	-2975.88599	743.22577	133.36980	-2996.17700	700.25250	138.07230	-3058.32300	580.66840	173.22052	-3077.56934	583.34998	289.84879	-3085.58960	348.25717	187.40651	0.00000	0.00000	0.00000	-3141.59888	368.43655	172.76768	-3157.01929	322.73468	179.71455	0.00000	0.00000	0.00000	-3243.07983	160.98036	311.95044	-3173.95532	64.31724	271.46820	-3380.46826	164.44249	270.31381	-3381.88013	191.74931	221.05017	-3355.26025	147.22404	155.24100
